<!--?xml version="1.0" standalone="no"?-->
              <svg id="sw-js-blob-svg" viewBox="0 0 100 100" xmlns="http://www.w3.org/2000/svg" version="1.1">
                    <defs> 
                        <linearGradient id="sw-gradient" x1="0" x2="1" y1="1" y2="0">
                            <stop id="stop1" stop-color="rgba(0, 84, 255, 1)" offset="0%"></stop>
                            <stop id="stop2" stop-color="rgba(129.659, 170.948, 255, 1)" offset="100%"></stop>
                        </linearGradient>
                    </defs>
                <path fill="url(#sw-gradient)" d="M20.1,-34.3C26.1,-31.4,31,-26,34.1,-19.9C37.2,-13.8,38.6,-6.9,39.1,0.3C39.7,7.5,39.4,15.1,36.7,21.8C33.9,28.6,28.6,34.5,22.1,37.7C15.6,40.8,7.8,41.2,1.2,39.2C-5.4,37.1,-10.9,32.7,-17.5,29.6C-24.1,26.5,-31.8,24.6,-35.9,19.9C-40.1,15.2,-40.7,7.6,-40.1,0.3C-39.5,-6.9,-37.8,-13.9,-33.9,-19.1C-30,-24.2,-24,-27.6,-17.9,-30.5C-11.9,-33.3,-6,-35.7,0.6,-36.6C7.1,-37.6,14.2,-37.2,20.1,-34.3Z" width="100%" height="100%" transform="translate(50 50)" stroke-width="0" style="transition: all 0.3s ease 0s;"></path>
              </svg>