<?xml version="1.0" encoding="UTF-8"?>
<svg width="31px" height="24px" viewBox="0 0 31 24" version="1.1" xmlns="http://www.w3.org/2000/svg" xmlns:xlink="http://www.w3.org/1999/xlink">
    <!-- Generator: Sketch 47.1 (45422) - http://www.bohemiancoding.com/sketch -->
    <title>quote-icon-sm</title>
    <desc>Created with Sketch.</desc>
    <defs></defs>
    <g id="Testimonials" stroke="none" stroke-width="1" fill="none" fill-rule="evenodd">
        <g id="Testimonials-Images" transform="translate(-92.000000, -92.000000)" fill="#D5DADE">
            <path d="M103.214706,92 C96.1941176,95.2359551 92,101.258427 92,107.910112 C92,112.58427 94.9176471,116 98.9294118,116 C102.394118,116 105.129412,113.483146 105.129412,110.157303 C105.129412,107.640449 103.488235,105.573034 101.026471,104.94382 C98.2,104.314607 98.1088235,104.224719 98.1088235,102.786517 C98.1088235,99.6404494 100.479412,96.6741573 105.038235,94.1573034 L103.214706,92 Z M121.085294,92 C114.064706,95.2359551 109.870588,101.258427 109.870588,107.910112 C109.870588,112.58427 112.788235,116 116.8,116 C120.264706,116 123,113.483146 123,110.157303 C123,107.640449 121.358824,105.573034 118.897059,104.94382 C116.070588,104.314607 115.979412,104.224719 115.979412,102.786517 C115.979412,99.6404494 118.35,96.6741573 122.908824,94.1573034 L121.085294,92 Z" id="quote-icon-sm"></path>
        </g>
    </g>
</svg>